<?xml version="1.0" encoding="UTF-8"?>
<svg version="1.1" xmlns="http://www.w3.org/2000/svg" width="88" height="64">
<path d="M0 0 C29.04 0 58.08 0 88 0 C88 21.12 88 42.24 88 64 C58.96 64 29.92 64 0 64 C0 42.88 0 21.76 0 0 Z " fill="#723E41" transform="translate(0,0)"/>
<path d="M0 0 C0.79075928 0.00523682 1.58151855 0.01047363 2.39624023 0.01586914 C3.67724609 0.02070312 3.67724609 0.02070312 4.98413086 0.02563477 C5.88196289 0.03401367 6.77979492 0.04239258 7.70483398 0.05102539 C8.6065332 0.05553711 9.50823242 0.06004883 10.43725586 0.06469727 C12.67234712 0.07652315 14.90730835 0.09300319 17.14233398 0.11352539 C17.80233398 2.42352539 18.46233398 4.73352539 19.14233398 7.11352539 C19.70823242 7.2230957 20.27413086 7.33266602 20.85717773 7.44555664 C21.5906543 7.60411133 22.32413086 7.76266602 23.07983398 7.92602539 C23.81073242 8.0768457 24.54163086 8.22766602 25.29467773 8.38305664 C25.9044043 8.62411133 26.51413086 8.86516602 27.14233398 9.11352539 C27.63733398 10.59852539 27.63733398 10.59852539 28.14233398 12.11352539 C28.88483398 12.11352539 29.62733398 12.11352539 30.39233398 12.11352539 C33.62138732 13.2877266 33.88114397 13.90781551 35.39233398 16.86352539 C38.07865597 22.9944054 39.09401658 29.42908812 38.14233398 36.11352539 C37.68729492 36.56083008 37.23225586 37.00813477 36.76342773 37.46899414 C34.26540488 40.00313299 33.85857596 42.90420212 32.95483398 46.30102539 C32.6106543 47.57333008 32.26647461 48.84563477 31.91186523 50.15649414 C31.65791992 51.13231445 31.40397461 52.10813477 31.14233398 53.11352539 C30.11374004 49.92633289 30.20900911 47.84682487 31.01733398 44.61352539 C31.20038086 43.86071289 31.38342773 43.10790039 31.57202148 42.33227539 C31.85432617 41.23399414 31.85432617 41.23399414 32.14233398 40.11352539 C32.33053711 39.36071289 32.51874023 38.60790039 32.71264648 37.83227539 C32.85444336 37.26508789 32.99624023 36.69790039 33.14233398 36.11352539 C29.59714514 37.51112444 29.59714514 37.51112444 26.14233398 39.11352539 C23.59075743 39.18519889 21.06760427 39.20660981 18.51733398 39.17602539 C17.81092773 39.17151367 17.10452148 39.16700195 16.37670898 39.16235352 C14.63188123 39.15056414 12.88709699 39.13262864 11.14233398 39.11352539 C10.72983398 38.27950195 10.31733398 37.44547852 9.89233398 36.58618164 C3.37154418 23.65914582 3.37154418 23.65914582 -7.85766602 15.11352539 C-7.64110352 15.64461914 -7.42454102 16.17571289 -7.20141602 16.72290039 C-6.92297852 17.42930664 -6.64454102 18.13571289 -6.35766602 18.86352539 C-6.07922852 19.55961914 -5.80079102 20.25571289 -5.51391602 20.97290039 C-4.85766602 23.11352539 -4.85766602 23.11352539 -4.85766602 27.11352539 C-4.09969727 27.03360352 -3.34172852 26.95368164 -2.56079102 26.87133789 C0.14233398 27.11352539 0.14233398 27.11352539 1.90795898 28.79321289 C2.39780273 29.51766602 2.88764648 30.24211914 3.39233398 30.98852539 C4.14256836 32.0674707 4.14256836 32.0674707 4.90795898 33.16821289 C7.09233635 36.61068101 7.25226475 38.65947992 7.20483398 42.73852539 C7.19581055 43.74141602 7.18678711 44.74430664 7.17749023 45.77758789 C7.16588867 46.54844727 7.15428711 47.31930664 7.14233398 48.11352539 C6.15233398 48.11352539 5.16233398 48.11352539 4.14233398 48.11352539 C4.14233398 47.45352539 4.14233398 46.79352539 4.14233398 46.11352539 C3.52358398 46.29915039 2.90483398 46.48477539 2.26733398 46.67602539 C0.14233398 47.11352539 0.14233398 47.11352539 -1.85766602 46.11352539 C-1.79579102 47.22727539 -1.73391602 48.34102539 -1.67016602 49.48852539 C-1.76297852 51.28290039 -1.76297852 51.28290039 -1.85766602 53.11352539 C-5.08558156 55.26546909 -6.14167411 55.31438982 -9.85766602 55.11352539 C-9.85766602 54.45352539 -9.85766602 53.79352539 -9.85766602 53.11352539 C-11.49735352 52.49477539 -11.49735352 52.49477539 -13.17016602 51.86352539 C-16.35988572 50.50111475 -18.14637512 49.23411467 -19.85766602 46.11352539 C-19.85766602 45.45352539 -19.85766602 44.79352539 -19.85766602 44.11352539 C-20.51766602 44.11352539 -21.17766602 44.11352539 -21.85766602 44.11352539 C-24.3225542 37.95130494 -24.98888229 32.32079765 -22.42016602 26.17602539 C-20.85766602 23.11352539 -20.85766602 23.11352539 -19.85766602 22.11352539 C-20.51766602 21.78352539 -21.17766602 21.45352539 -21.85766602 21.11352539 C-22.27172852 18.82836914 -22.27172852 18.82836914 -22.48266602 16.05102539 C-22.59481445 14.67237305 -22.59481445 14.67237305 -22.70922852 13.26586914 C-22.78270508 12.20045898 -22.78270508 12.20045898 -22.85766602 11.11352539 C-21.20766602 11.11352539 -19.55766602 11.11352539 -17.85766602 11.11352539 C-20.16766602 10.12352539 -22.47766602 9.13352539 -24.85766602 8.11352539 C-24.19766602 7.45352539 -23.53766602 6.79352539 -22.85766602 6.11352539 C-21.86766602 6.11352539 -20.87766602 6.11352539 -19.85766602 6.11352539 C-19.85766602 5.45352539 -19.85766602 4.79352539 -19.85766602 4.11352539 C-18.64208008 3.90856445 -17.42649414 3.70360352 -16.17407227 3.49243164 C-14.58940088 3.22050578 -13.00476739 2.94835896 -11.42016602 2.67602539 C-10.61772461 2.54131836 -9.8152832 2.40661133 -8.98852539 2.26782227 C-5.8514364 1.72511911 -2.88544215 0.17633468 0 0 Z " fill="#6736A7" transform="translate(41.857666015625,-0.113525390625)"/>
<path d="M0 0 C13.2 0 26.4 0 40 0 C39.67 0.66 39.34 1.32 39 2 C33.48328169 3.52250148 27.71937774 4.30915555 22 4 C22 4.66 22 5.32 22 6 C20.35 6.66 18.7 7.32 17 8 C17.05220703 9.08667969 17.05220703 9.08667969 17.10546875 10.1953125 C17.29589926 16.99640215 16.80402753 21.34257279 12.5625 26.875 C11 28 11 28 7 28 C12.08730152 42.8650229 17.00723472 52.49493964 31 61 C33.32411702 61.83970365 35.58901211 62.42667372 38 63 C38 63.33 38 63.66 38 64 C25.46 64 12.92 64 0 64 C0 42.88 0 21.76 0 0 Z " fill="#3F0470" transform="translate(0,0)"/>
<path d="M0 0 C2.64 0 5.28 0 8 0 C8.20625 0.5775 8.4125 1.155 8.625 1.75 C11.01964374 5.66850794 14.72751322 7.57583774 19 9 C19 8.34 19 7.68 19 7 C33.56880216 9.13201983 33.56880216 9.13201983 38 15 C39.3315475 18.26879894 40.23790989 21.55722451 41 25 C41.66 25 42.32 25 43 25 C43.185625 24.0409375 43.185625 24.0409375 43.375 23.0625 C43.58125 22.381875 43.7875 21.70125 44 21 C46.70879335 19.64560332 49.00933268 19.93498549 52 20 C51.54713369 24.86831281 50.41678531 27.48559226 47 31 C43.32414955 33.52008659 39.53577289 33.23032145 35.25 33.125 C34.55261719 33.11597656 33.85523438 33.10695312 33.13671875 33.09765625 C31.42433042 33.07419888 29.71211996 33.03833104 28 33 C27.5875 32.16597656 27.175 31.33195312 26.75 30.47265625 C20.22921019 17.54562043 20.22921019 17.54562043 9 9 C9.2165625 9.53109375 9.433125 10.0621875 9.65625 10.609375 C9.9346875 11.31578125 10.213125 12.0221875 10.5 12.75 C10.7784375 13.44609375 11.056875 14.1421875 11.34375 14.859375 C12 17 12 17 12 21 C12.75796875 20.92007812 13.5159375 20.84015625 14.296875 20.7578125 C17 21 17 21 18.765625 22.6796875 C19.25546875 23.40414063 19.7453125 24.12859375 20.25 24.875 C20.75015625 25.59429688 21.2503125 26.31359375 21.765625 27.0546875 C23.95000236 30.49715562 24.10993076 32.54595453 24.0625 36.625 C24.05347656 37.62789062 24.04445313 38.63078125 24.03515625 39.6640625 C24.02355469 40.43492188 24.01195313 41.20578125 24 42 C23.01 42 22.02 42 21 42 C21 41.34 21 40.68 21 40 C20.12214844 40.34417969 20.12214844 40.34417969 19.2265625 40.6953125 C17 41 17 41 15.1484375 39.7421875 C14.56320313 39.12601563 13.97796875 38.50984375 13.375 37.875 C12.78460938 37.27429687 12.19421875 36.67359375 11.5859375 36.0546875 C7.4705104 30.72287801 7.44282442 24.79940525 7.05273438 18.32617188 C6.53915655 12.60562682 4.88030462 10.19244268 1 6 C0.1875 2.625 0.1875 2.625 0 0 Z " fill="#C0BCF2" transform="translate(25,6)"/>
<path d="M0 0 C0.94875 0.04125 1.8975 0.0825 2.875 0.125 C3.52604167 1.78515625 4.17708333 3.4453125 4.828125 5.10546875 C5.84860416 7.29197941 5.84860416 7.29197941 7.91796875 9.3359375 C10.52566751 13.05229861 10.648073 16.12076025 10.9375 20.5625 C11.41624675 27.32996942 12.33019821 32.36813139 17.125 37.5625 C18.875 40.125 18.875 40.125 18.8125 43.8125 C17.875 47.125 17.875 47.125 14.875 49.125 C12.1875 49.25 12.1875 49.25 9.875 49.125 C9.875 48.465 9.875 47.805 9.875 47.125 C8.2353125 46.50625 8.2353125 46.50625 6.5625 45.875 C3.3727803 44.51258936 1.58629089 43.24558928 -0.125 40.125 C-0.125 39.465 -0.125 38.805 -0.125 38.125 C-0.785 38.125 -1.445 38.125 -2.125 38.125 C-4.58988818 31.96277955 -5.25621627 26.33227226 -2.6875 20.1875 C-1.125 17.125 -1.125 17.125 -0.125 16.125 C-0.785 15.795 -1.445 15.465 -2.125 15.125 C-2.5390625 12.83984375 -2.5390625 12.83984375 -2.75 10.0625 C-2.86214844 8.68384766 -2.86214844 8.68384766 -2.9765625 7.27734375 C-3.05003906 6.21193359 -3.05003906 6.21193359 -3.125 5.125 C-1.475 5.125 0.175 5.125 1.875 5.125 C-0.435 4.135 -2.745 3.145 -5.125 2.125 C-3.125 0.125 -3.125 0.125 0 0 Z " fill="#4E2A3D" transform="translate(22.125,5.875)"/>
<path d="M0 0 C9.57 0 19.14 0 29 0 C29.092369 4.26950028 29.17182767 8.53546837 29.21972656 12.80517578 C29.23971295 14.25418917 29.26691197 15.70312325 29.30175781 17.15185547 C29.49295405 25.3114361 29.63784283 31.98845808 25 39 C24.01 38.34 23.02 37.68 22 37 C21.01 37.495 21.01 37.495 20 38 C20.03480469 37.24976563 20.06960937 36.49953125 20.10546875 35.7265625 C20.29525498 28.55083534 19.46374163 22.72741887 17 16 C16.67 15.01 16.34 14.02 16 13 C15.01 13.33 14.02 13.66 13 14 C12.01 13.34 11.02 12.68 10 12 C10 11.01 10 10.02 10 9 C7.98177083 8.83723958 5.96354167 8.67447917 3.9453125 8.51171875 C2 8 2 8 0 5 C0 3.35 0 1.7 0 0 Z " fill="#251587" transform="translate(59,0)"/>
<path d="M0 0 C1.31471568 0.28151087 2.62675767 0.57553339 3.9375 0.875 C4.66839844 1.03742187 5.39929688 1.19984375 6.15234375 1.3671875 C8 2 8 2 9 4 C6.03 3.505 6.03 3.505 3 3 C3.33 6.3 3.66 9.6 4 13 C5.32 13.33 6.64 13.66 8 14 C7.01 14.66 6.02 15.32 5 16 C2.02653861 22.57291465 2.61567939 29.07839696 4 36 C4.66 36 5.32 36 6 36 C6.495 36.94875 6.99 37.8975 7.5 38.875 C8.97748562 41.28443808 9.75889703 41.91811597 12.484375 42.84375 C14.98746143 43.32456886 17.46702589 43.71963264 20 44 C18.02 44.495 18.02 44.495 16 45 C16 45.66 16 46.32 16 47 C18.31 46.34 20.62 45.68 23 45 C23.33 42.69 23.66 40.38 24 38 C25.32 38.66 26.64 39.32 28 40 C27.505 40.99 27.505 40.99 27 42 C26.49929679 45.37357334 26.49929679 45.37357334 27 49 C29.39583651 51.81331378 29.39583651 51.81331378 32 54 C32 54.66 32 55.32 32 56 C18.84424615 56.72787982 10.92875543 52.06258887 1.140625 43.34375 C-4.81417914 37.0819972 -7.83497442 28.43077649 -9 20 C-8.236875 19.7525 -7.47375 19.505 -6.6875 19.25 C-3.71392111 17.86694005 -2.67876071 16.76995517 -1 14 C0.04976964 10.85069107 0.10131595 8.61185544 0.0625 5.3125 C0.05347656 4.31863281 0.04445313 3.32476562 0.03515625 2.30078125 C0.02355469 1.54152344 0.01195312 0.78226563 0 0 Z " fill="#3A1049" transform="translate(16,8)"/>
<path d="M0 0 C0.33 0 0.66 0 1 0 C1 10.89 1 21.78 1 33 C-9.23 33 -19.46 33 -30 33 C-28.68 32.34 -27.36 31.68 -26 31 C-20.65219495 28.11719884 -16.75646006 25.61501123 -14 20 C-13.51714731 17.9431021 -13.06088911 15.87985976 -12.625 13.8125 C-11.39805872 8.28098263 -11.39805872 8.28098263 -7.8125 5.75 C-6.884375 5.5025 -5.95625 5.255 -5 5 C-4.67 5.66 -4.34 6.32 -4 7 C-2.68 4.69 -1.36 2.38 0 0 Z " fill="#35031A" transform="translate(87,31)"/>
<path d="M0 0 C2.64 0 5.28 0 8 0 C8.268125 0.598125 8.53625 1.19625 8.8125 1.8125 C9.98493467 3.97224808 11.19369282 5.35790256 13 7 C12.01 7.66 11.02 8.32 10 9 C10.33 10.2375 10.66 11.475 11 12.75 C11.79891159 15.74591845 12 17.80107719 12 21 C12.75796875 20.92007812 13.5159375 20.84015625 14.296875 20.7578125 C17 21 17 21 18.765625 22.6796875 C19.25546875 23.40414063 19.7453125 24.12859375 20.25 24.875 C20.75015625 25.59429688 21.2503125 26.31359375 21.765625 27.0546875 C23.95000236 30.49715562 24.10993076 32.54595453 24.0625 36.625 C24.05347656 37.62789062 24.04445313 38.63078125 24.03515625 39.6640625 C24.02355469 40.43492188 24.01195313 41.20578125 24 42 C23.01 42 22.02 42 21 42 C21 41.34 21 40.68 21 40 C20.12214844 40.34417969 20.12214844 40.34417969 19.2265625 40.6953125 C17 41 17 41 15.1484375 39.7421875 C14.56320313 39.12601563 13.97796875 38.50984375 13.375 37.875 C12.78460938 37.27429687 12.19421875 36.67359375 11.5859375 36.0546875 C7.4705104 30.72287801 7.44282442 24.79940525 7.05273438 18.32617188 C6.53915655 12.60562682 4.88030462 10.19244268 1 6 C0.1875 2.625 0.1875 2.625 0 0 Z " fill="#94837D" transform="translate(25,6)"/>
<path d="M0 0 C11.88 0 23.76 0 36 0 C35.67 0.66 35.34 1.32 35 2 C32.52318728 2.45221044 30.12242396 2.79558201 27.625 3.0625 C20.97383293 3.34640379 20.97383293 3.34640379 15.68359375 6.62890625 C15.06677734 7.58603516 15.06677734 7.58603516 14.4375 8.5625 C13.18359375 10.50390625 13.18359375 10.50390625 12 12 C11.34 12 10.68 12 10 12 C9.8453125 13.0828125 9.8453125 13.0828125 9.6875 14.1875 C8.92271316 17.31617344 7.76816714 19.31500546 6 22 C5.319375 23.093125 4.63875 24.18625 3.9375 25.3125 C3.298125 26.199375 2.65875 27.08625 2 28 C1.34 28 0.68 28 0 28 C0 18.76 0 9.52 0 0 Z " fill="#2D0250" transform="translate(0,0)"/>
<path d="M0 0 C0.66 0 1.32 0 2 0 C1.70673279 3.81247372 1.49869932 6.3293354 -0.8125 9.4375 C-3 11 -3 11 -7 11 C-1.91269848 25.8650229 3.00723472 35.49493964 17 44 C19.32411702 44.83970365 21.58901211 45.42667372 24 46 C24 46.33 24 46.66 24 47 C17.73 47 11.46 47 5 47 C4.01 45.02 3.02 43.04 2 41 C0.68352881 40.30062468 -0.65022151 39.63270867 -2 39 C-3.625 36.625 -3.625 36.625 -5 34 C-5.391875 33.38125 -5.78375 32.7625 -6.1875 32.125 C-7.3564174 29.06783142 -7.12449831 26.23695593 -7 23 C-7.66 23 -8.32 23 -9 23 C-9.46819822 9.83842795 -9.46819822 9.83842795 -4.5 4.125 C-2 2 -2 2 0 2 C0 1.34 0 0.68 0 0 Z " fill="#6A0C8F" transform="translate(14,17)"/>
<path d="M0 0 C0 1.65 0 3.3 0 5 C0.64066406 5.268125 1.28132813 5.53625 1.94140625 5.8125 C8.31061429 8.69810245 13.41247477 11.83428385 17 18 C18.05599885 21.77745876 18.79755785 25.4048843 17 29 C16.34 29 15.68 29 15 29 C12.96564469 25.27034861 12 23.33094958 12 19 C11.401875 18.731875 10.80375 18.46375 10.1875 18.1875 C8 17 8 17 6.75 15.53125 C4.3056009 13.39240078 1.95879319 13.0229533 -1.1875 12.3125 C-2.27417969 12.06113281 -3.36085938 11.80976563 -4.48046875 11.55078125 C-5.31191406 11.36902344 -6.14335938 11.18726563 -7 11 C-7 11.66 -7 12.32 -7 13 C-12.02692063 12.54300722 -15.14896261 10.00758252 -19 7 C-16.69927616 4.69927616 -15.7478543 4.60718389 -12.625 4.0625 C-7.67357219 3.07221444 -5.00314778 0 0 0 Z " fill="#27189F" transform="translate(51,2)"/>
<path d="M0 0 C0.66 0 1.32 0 2 0 C2.09965569 4.26832981 2.17183391 8.53602469 2.21972656 12.80517578 C2.23971295 14.25418917 2.26691197 15.70312325 2.30175781 17.15185547 C2.49295405 25.3114361 2.63784283 31.98845808 -2 39 C-2.99 38.34 -3.98 37.68 -5 37 C-5.99 37.495 -5.99 37.495 -7 38 C-6.91621094 36.91460937 -6.83242187 35.82921875 -6.74609375 34.7109375 C-6.64285903 33.26565139 -6.54001517 31.82033733 -6.4375 30.375 C-6.38142578 29.66214844 -6.32535156 28.94929688 -6.26757812 28.21484375 C-6.03343331 24.81193913 -5.98778239 22.06211228 -6.65234375 18.68359375 C-7 16 -7 16 -5.8203125 14.19921875 C-5.26085937 13.70035156 -4.70140625 13.20148437 -4.125 12.6875 C-0.36519505 8.80584951 -0.02387534 5.2645131 0 0 Z " fill="#190846" transform="translate(86,0)"/>
<path d="M0 0 C1.23848361 3.71545083 0.4723496 4.49219166 -1 8 C-1.30767607 9.80661074 -1.57789499 11.61995566 -1.8125 13.4375 C-2.73509449 18.5984797 -3.89756309 21.49583514 -8 25 C-14.34455055 28.53830704 -19.81114702 29.46379697 -27 29 C-27.33 27.35 -27.66 25.7 -28 24 C-21.16914355 21.55833216 -15.2484945 20.58359712 -8 21 C-8 20.34 -8 19.68 -8 19 C-9.65 18.34 -11.3 17.68 -13 17 C-13 16.67 -13 16.34 -13 16 C-10.36 16 -7.72 16 -5 16 C-5.05800781 15.34773438 -5.11601563 14.69546875 -5.17578125 14.0234375 C-5.59016895 5.99615573 -5.59016895 5.99615573 -2.5 2.375 C-1.675 1.59125 -0.85 0.8075 0 0 Z " fill="#841F79" transform="translate(75,35)"/>
<path d="M0 0 C14.50822647 2.12315509 14.50822647 2.12315509 19 8 C20.63080604 11.58474392 21.87700128 15.22804547 23 19 C19.5647952 21.29013653 18.014669 21.17842973 14 21 C14 20.01 14 19.02 14 18 C13.69208308 16.328451 13.35613097 14.66194453 13 13 C12.66666667 11.33333333 12.33333333 9.66666667 12 8 C9.03 7.505 9.03 7.505 6 7 C5.67 7.66 5.34 8.32 5 9 C2.69 7.02 0.38 5.04 -2 3 C-1.34 2.67 -0.68 2.34 0 2 C0 1.34 0 0.68 0 0 Z " fill="#514DEB" transform="translate(44,13)"/>
<path d="M0 0 C0.99 0 1.98 0 3 0 C3.08636719 0.556875 3.17273438 1.11375 3.26171875 1.6875 C4.53606345 8.6087116 6.90271974 14.32127113 12.3125 19 C12.869375 19.33 13.42625 19.66 14 20 C13.67 21.65 13.34 23.3 13 25 C9.8125 25.5 9.8125 25.5 6 25 C2.9480455 21.75918693 1 18.47704653 1 14 C0.34 14 -0.32 14 -1 14 C-2.16983345 11.6603331 -2.1661241 10.16608473 -2.1875 7.5625 C-2.20167969 6.78003906 -2.21585938 5.99757813 -2.23046875 5.19140625 C-2 3 -2 3 0 0 Z " fill="#640CB7" transform="translate(24,26)"/>
<path d="M0 0 C0 3 0 3 -2 6 C-2.45601261 8.50896686 -2.45601261 8.50896686 -2.625 11.1875 C-2.69976562 12.08855469 -2.77453125 12.98960938 -2.8515625 13.91796875 C-2.90054688 14.60503906 -2.94953125 15.29210938 -3 16 C-4.98 16.33 -6.96 16.66 -9 17 C-8.01 17.66 -7.02 18.32 -6 19 C-6 19.66 -6 20.32 -6 21 C-8.875 21.125 -8.875 21.125 -12 21 C-12.66 20.34 -13.32 19.68 -14 19 C-13.625 16.875 -13.625 16.875 -13 15 C-11.68 14.67 -10.36 14.34 -9 14 C-8.67 12.35 -8.34 10.7 -8 9 C-9.2375 9.020625 -10.475 9.04125 -11.75 9.0625 C-14.6640825 9.06766681 -17.20953327 8.93015558 -20 8 C-20 7.01 -20 6.02 -20 5 C-19.2265625 4.97421875 -18.453125 4.9484375 -17.65625 4.921875 C-10.73183653 4.54480298 -5.96474358 3.55590483 0 0 Z " fill="#6D1B2A" transform="translate(73,35)"/>
<path d="M0 0 C4.44973611 0.50854127 6.62493666 2.14417717 10 5 C10.7425 5.350625 11.485 5.70125 12.25 6.0625 C14 7 14 7 15 10 C15.14220279 11.66267874 15.22020567 13.3315173 15.25 15 C15.28867188 16.299375 15.28867188 16.299375 15.328125 17.625 C15 20 15 20 13.62109375 21.36328125 C11.11844686 23.89005004 10.71552962 26.7933542 9.8125 30.1875 C9.46832031 31.45980469 9.12414062 32.73210938 8.76953125 34.04296875 C8.51558594 35.01878906 8.26164062 35.99460938 8 37 C6.97140606 33.8128075 7.06667513 31.73329948 7.875 28.5 C8.05804688 27.7471875 8.24109375 26.994375 8.4296875 26.21875 C8.80762509 24.74841745 9.22939574 23.28861546 9.6953125 21.84375 C9.79585937 21.2353125 9.89640625 20.626875 10 20 C9.34 19.34 8.68 18.68 8 18 C8.474375 17.236875 8.94875 16.47375 9.4375 15.6875 C11.10106097 13.03589452 11.10106097 13.03589452 12 10 C9.36 10.33 6.72 10.66 4 11 C3.52014033 9.72942818 3.0411407 8.45853152 2.5625 7.1875 C2.16224609 6.12595703 2.16224609 6.12595703 1.75390625 5.04296875 C1.13774814 3.37327604 0.56280765 1.68842296 0 0 Z " fill="#5C485F" transform="translate(65,16)"/>
<path d="M0 0 C2.0625 0.4375 2.0625 0.4375 4 1 C4 1.99 4 2.98 4 4 C3.34 4 2.68 4 2 4 C0.95023036 7.14930893 0.89868405 9.38814456 0.9375 12.6875 C0.94652344 13.68136719 0.95554687 14.67523438 0.96484375 15.69921875 C0.97644531 16.45847656 0.98804688 17.21773437 1 18 C1.66 18 2.32 18 3 18 C3.64834654 19.269553 4.29357815 20.54069706 4.9375 21.8125 C5.29714844 22.52019531 5.65679687 23.22789063 6.02734375 23.95703125 C7 26 7 26 8 29 C11.96 28.505 11.96 28.505 16 28 C16 28.66 16 29.32 16 30 C7.0899654 30.62283737 7.0899654 30.62283737 2.9375 28.25 C1.04448076 26.05165508 0.30538536 24.85026332 0 22 C-0.66 22 -1.32 22 -2 22 C-4.46488818 15.83777955 -5.13121627 10.20727226 -2.5625 4.0625 C-1 1 -1 1 0 0 Z " fill="#41058B" transform="translate(22,22)"/>
<path d="M0 0 C-0.45286631 4.86831281 -1.58321469 7.48559226 -5 11 C-8.67585045 13.52008659 -12.46422711 13.23032145 -16.75 13.125 C-17.44738281 13.11597656 -18.14476562 13.10695313 -18.86328125 13.09765625 C-20.57566958 13.07419888 -22.28788004 13.03833104 -24 13 C-24.33 12.34 -24.66 11.68 -25 11 C-23.02 10.34 -21.04 9.68 -19 9 C-19 8.67 -19 8.34 -19 8 C-17.1128125 7.6596875 -17.1128125 7.6596875 -15.1875 7.3125 C-11.87528705 6.50635293 -11.22618932 6.30912541 -9.125 3.4375 C-8.75375 2.633125 -8.3825 1.82875 -8 1 C-5.29120665 -0.35439668 -2.99066732 -0.06501451 0 0 Z " fill="#AA9492" transform="translate(77,26)"/>
<path d="M0 0 C2.875 2.3125 2.875 2.3125 5 5 C5.825 5.4125 6.65 5.825 7.5 6.25 C11.30674004 8.91471802 13.32348994 12.70528061 15 17 C15.13671875 19.7890625 15.13671875 19.7890625 15 22 C14.34 22 13.68 22 13 22 C10.96564469 18.27034861 10 16.33094958 10 12 C9.401875 11.731875 8.80375 11.46375 8.1875 11.1875 C6 10 6 10 4.75 8.53125 C2.3056009 6.39240078 -0.04120681 6.0229533 -3.1875 5.3125 C-4.27417969 5.06113281 -5.36085938 4.80976563 -6.48046875 4.55078125 C-7.31191406 4.36902344 -8.14335938 4.18726563 -9 4 C-9 4.66 -9 5.32 -9 6 C-10.65 5.67 -12.3 5.34 -14 5 C-13.625 3.0625 -13.625 3.0625 -13 1 C-9.04508068 -0.97745966 -4.30014649 -0.56794388 0 0 Z " fill="#352DDF" transform="translate(53,9)"/>
<path d="M0 0 C3.67018925 0.2097251 4.91730351 0.92015511 7.60546875 3.515625 C10.62745933 7.30030039 10.87132871 10.91162383 11.125 15.625 C11.44176399 20.60761188 11.7195626 24.05235499 15 28 C14.67 28.99 14.34 29.98 14 31 C9.51923333 25.90119655 7.27664456 20.83078296 6.125 14.1875 C5.73780819 11.93020332 5.73780819 11.93020332 5 10 C2.52985528 8.32386813 2.52985528 8.32386813 0 8 C0 5.36 0 2.72 0 0 Z " fill="#432C44" transform="translate(20,13)"/>
<path d="M0 0 C2.328125 0.21484375 2.328125 0.21484375 5 1 C9.09215545 6.30120138 10.6351084 12.43195117 11 19 C10.01 19 9.02 19 8 19 C8 18.34 8 17.68 8 17 C7.1646875 16.690625 7.1646875 16.690625 6.3125 16.375 C3.10191044 14.4660008 0.63629148 12.36427171 -1 9 C-1.12180774 5.8888274 -0.6802021 3.03060344 0 0 Z " fill="#F09FC2" transform="translate(38,29)"/>
<path d="M0 0 C1.8871875 0.0309375 1.8871875 0.0309375 3.8125 0.0625 C3.22530365 2.99848174 2.30195314 4.67196791 -0.04296875 6.54296875 C-5.5535853 9.92901025 -8.90960046 10.54636716 -15.1875 9.0625 C-14.3125 3.3125 -14.3125 3.3125 -13.1875 1.0625 C-12.5275 1.0625 -11.8675 1.0625 -11.1875 1.0625 C-11.1875 1.7225 -11.1875 2.3825 -11.1875 3.0625 C-10.1975 3.0625 -9.2075 3.0625 -8.1875 3.0625 C-7.8575 2.4025 -7.5275 1.7425 -7.1875 1.0625 C-4.43671116 0.14557039 -2.82801087 -0.04636083 0 0 Z " fill="#AE1043" transform="translate(57.1875,44.9375)"/>
<path d="M0 0 C3.3 0 6.6 0 10 0 C10 1.65 10 3.3 10 5 C8.35 5.33 6.7 5.66 5 6 C5.33 6.99 5.66 7.98 6 9 C6 9.99 6 10.98 6 12 C3.58850626 12.75284195 1.17405166 13.47731111 -1.25 14.1875 C-2.27287109 14.51137695 -2.27287109 14.51137695 -3.31640625 14.84179688 C-8.38939691 16.2947408 -8.38939691 16.2947408 -11.484375 14.80078125 C-13 13 -13 13 -13 10 C-11.865625 10.103125 -10.73125 10.20625 -9.5625 10.3125 C-4.31316798 10.3218571 -0.08441936 8.22008165 4 5 C5.26526342 2.93113992 5.26526342 2.93113992 6 1 C4.02 1 2.04 1 0 1 C0 0.67 0 0.34 0 0 Z " fill="#74052F" transform="translate(55,44)"/>
<path d="M0 0 C4.95 0 9.9 0 15 0 C10.41600834 5.60265647 6.17354048 10.07138333 0 14 C0 9.38 0 4.76 0 0 Z " fill="#140127" transform="translate(0,0)"/>
<path d="M0 0 C0.66 0 1.32 0 2 0 C2.66 0.99 3.32 1.98 4 3 C5.175625 2.938125 6.35125 2.87625 7.5625 2.8125 C13.0358699 2.56142799 17.02279185 5.44629087 21 9 C21 9.66 21 10.32 21 11 C13.11875448 11.43605252 6.86532217 10.92256067 0.4375 6.0625 C-1 4 -1 4 -0.75 1.75 C-0.5025 1.1725 -0.255 0.595 0 0 Z " fill="#240818" transform="translate(27,53)"/>
<path d="M0 0 C0.33 1.32 0.66 2.64 1 4 C1.75796875 3.92007812 2.5159375 3.84015625 3.296875 3.7578125 C6 4 6 4 7.765625 5.6796875 C8.25546875 6.40414063 8.7453125 7.12859375 9.25 7.875 C9.75015625 8.59429687 10.2503125 9.31359375 10.765625 10.0546875 C13.41932457 14.23678365 13.07916163 17.09197887 13 22 C12.67 22 12.34 22 12 22 C11.81824219 21.33613281 11.63648438 20.67226563 11.44921875 19.98828125 C9.60015497 13.08356866 9.60015497 13.08356866 6 7 C3.9499492 6.35834758 3.9499492 6.35834758 2 6 C1.50604795 10.03394177 1.07624853 13.55765122 3.3359375 17.0859375 C4.41630973 18.28804181 5.53267366 19.45907629 6.6875 20.58984375 C8 22 8 22 8 24 C4.88036045 22.63981009 2.99165178 21.16739866 0.8125 18.5625 C0.30332031 17.96566406 -0.20585938 17.36882813 -0.73046875 16.75390625 C-3.6437046 12.72915888 -3.07764815 8.73653688 -3 4 C-2.34 4.66 -1.68 5.32 -1 6 C-0.67 4.02 -0.34 2.04 0 0 Z " fill="#A37077" transform="translate(36,23)"/>
<path d="M0 0 C2 1 2 1 3.0625 3.125 C6.88618044 8.79884839 12.60056073 12.70479475 19 15 C19.33 14.34 19.66 13.68 20 13 C20.515625 13.45375 21.03125 13.9075 21.5625 14.375 C24.57300574 16.38200383 27.50927237 17.12731809 31 18 C31 18.33 31 18.66 31 19 C24.73 19 18.46 19 12 19 C11.01 17.02 10.02 15.04 9 13 C7.68352881 12.30062468 6.34977849 11.63270867 5 11 C2.51826491 7.56375142 1.2213312 4.0397878 0 0 Z " fill="#600891" transform="translate(7,45)"/>
<path d="M0 0 C0.66 0 1.32 0 2 0 C2.08112454 2.58396679 2.14054748 5.16537568 2.1875 7.75 C2.22520508 8.84441406 2.22520508 8.84441406 2.26367188 9.9609375 C2.308764 13.2676931 2.22638385 15.58932057 0.61328125 18.515625 C-1 20 -1 20 -3 20 C-2.95875 21.216875 -2.9175 22.43375 -2.875 23.6875 C-2.86245492 27.21894127 -3.40001783 29.80003566 -5 33 C-6.17946184 29.31418175 -6 25.84329799 -6 22 C-6.28875 21.01 -6.5775 20.02 -6.875 19 C-7 16 -7 16 -5.765625 14.38671875 C-4.65717912 13.23868552 -3.54777911 12.09157288 -2.4375 10.9453125 C0.00846901 7.63527835 -0.01817378 4.00731945 0 0 Z " fill="#120A53" transform="translate(86,0)"/>
<path d="M0 0 C1.98 0 3.96 0 6 0 C6.66 2.31 7.32 4.62 8 7 C8.56589844 7.10957031 9.13179687 7.21914062 9.71484375 7.33203125 C10.44832031 7.49058594 11.18179688 7.64914063 11.9375 7.8125 C12.66839844 7.96332031 13.39929688 8.11414062 14.15234375 8.26953125 C14.76207031 8.51058594 15.37179688 8.75164063 16 9 C16.33 9.99 16.66 10.98 17 12 C17.7425 12 18.485 12 19.25 12 C23.0715256 13.38964567 23.71069067 15.54042198 25.3984375 19.08984375 C26 21 26 21 25 23 C24.401875 22.030625 23.80375 21.06125 23.1875 20.0625 C21.28872491 16.76947958 21.28872491 16.76947958 18 16 C18 15.34 18 14.68 18 14 C17.278125 13.87625 16.55625 13.7525 15.8125 13.625 C10.53890118 12.45308915 6.19314248 10.44769493 2 7 C0.625 3.25 0.625 3.25 0 0 Z " fill="#573ABE" transform="translate(53,0)"/>
<path d="M0 0 C1.32 0.66 2.64 1.32 4 2 C3.67 2.66 3.34 3.32 3 4 C2.58326793 7.45800359 2.58326793 7.45800359 3 11 C4.86124923 12.98239527 4.86124923 12.98239527 7 14 C6.67 14.66 6.34 15.32 6 16 C5.01 15.175 4.02 14.35 3 13.5 C-1.13095589 10.50104429 -4.00280202 10.5616493 -9 11 C-9.66 9.68 -10.32 8.36 -11 7 C-11.99 7.495 -11.99 7.495 -13 8 C-13 9.32 -13 10.64 -13 12 C-14.32 11.34 -15.64 10.68 -17 10 C-17 9.34 -17 8.68 -17 8 C-17.66 7.34 -18.32 6.68 -19 6 C-18.67 5.34 -18.34 4.68 -18 4 C-13.38 4.66 -8.76 5.32 -4 6 C-5.32 6.33 -6.64 6.66 -8 7 C-8 7.66 -8 8.32 -8 9 C-5.69 8.34 -3.38 7.68 -1 7 C-0.67 4.69 -0.34 2.38 0 0 Z " fill="#3A1340" transform="translate(40,46)"/>
<path d="M0 0 C2.64 0 5.28 0 8 0 C8 0.66 8 1.32 8 2 C8.92039062 2.10054687 8.92039062 2.10054687 9.859375 2.203125 C12 3 12 3 13.265625 5.109375 C13.59046875 5.98078125 13.9153125 6.8521875 14.25 7.75 C14.58515625 8.61109375 14.9203125 9.4721875 15.265625 10.359375 C16.01079114 13.03880217 16.13926696 15.23455607 16 18 C14.35 17.67 12.7 17.34 11 17 C11.20625 16.319375 11.4125 15.63875 11.625 14.9375 C12.10063829 11.21166669 11.17669149 8.53007446 10 5 C7.03 4.505 7.03 4.505 4 4 C3.67 4.66 3.34 5.32 3 6 C1.5 4.6875 1.5 4.6875 0 3 C0 2.01 0 1.02 0 0 Z " fill="#7A7AF3" transform="translate(46,16)"/>
<path d="M0 0 C0.99 0.33 1.98 0.66 3 1 C3 3.64 3 6.28 3 9 C2.67 8.34 2.34 7.68 2 7 C1.34 7 0.68 7 0 7 C0 7.66 0 8.32 0 9 C-0.66 9 -1.32 9 -2 9 C-2.268125 9.61875 -2.53625 10.2375 -2.8125 10.875 C-4 13 -4 13 -7 15 C-7.54475978 17.59270699 -7.92400149 20.00451945 -8.1875 22.625 C-8.26935547 23.33140625 -8.35121094 24.0378125 -8.43554688 24.765625 C-8.63580725 26.5090683 -8.81949401 28.25440086 -9 30 C-8.34 30 -7.68 30 -7 30 C-7.33 30.99 -7.66 31.98 -8 33 C-10.50405067 31.12694353 -10.9717169 30.19314042 -11.43359375 27.0390625 C-11.43488281 25.91242187 -11.43617187 24.78578125 -11.4375 23.625 C-11.46650391 21.94277344 -11.46650391 21.94277344 -11.49609375 20.2265625 C-10.90532159 16.38421757 -9.68800928 14.75308213 -7 12 C-6.34 11.67 -5.68 11.34 -5 11 C-4.67 10.01 -4.34 9.02 -4 8 C-3.34 8 -2.68 8 -2 8 C-1.7834375 6.576875 -1.7834375 6.576875 -1.5625 5.125 C-1 2 -1 2 0 0 Z " fill="#52077F" transform="translate(14,10)"/>
<path d="M0 0 C0.33 0 0.66 0 1 0 C1 1.98 1 3.96 1 6 C0.34 6 -0.32 6 -1 6 C-1.02578125 6.56847656 -1.0515625 7.13695312 -1.078125 7.72265625 C-1.50884863 13.58637117 -2.88972832 17.04300451 -6 22 C-6.33 23.32 -6.66 24.64 -7 26 C-11.29 26 -15.58 26 -20 26 C-18.68 25.34 -17.36 24.68 -16 24 C-10.65219495 21.11719884 -6.75646006 18.61501123 -4 13 C-3.09530058 9.85392815 -2.31715436 6.70863963 -1.61328125 3.51171875 C-1 1 -1 1 0 0 Z " fill="#6B0946" transform="translate(77,38)"/>
<path d="M0 0 C0.33 0.66 0.66 1.32 1 2 C1.66 2 2.32 2 3 2 C3.91485873 3.46377396 4.7558052 4.97394489 5.5625 6.5 C8.42778762 11.50536596 11.77449658 14.8085055 16.2421875 18.40625 C16.82226562 18.9321875 17.40234375 19.458125 18 20 C18 20.66 18 21.32 18 22 C10.29486504 19.84972978 6.46782872 15.89665012 2.2265625 9.328125 C0.53849442 6.12402126 0.15300529 3.59562436 0 0 Z " fill="#8416AA" transform="translate(8,38)"/>
<path d="M0 0 C0.94875 0.04125 1.8975 0.0825 2.875 0.125 C3.49375 1.7028125 3.49375 1.7028125 4.125 3.3125 C5.22953637 5.96021638 6.06591798 7.33228238 8.0625 9.5 C10.6746358 13.28309322 10.22497489 16.66282017 9.875 21.125 C7.875 18.125 7.875 18.125 7 15.75 C5.68562939 12.68313524 4.16463643 10.54932093 1.875 8.125 C-0.25446603 7.25534494 -0.25446603 7.25534494 -2.125 7.125 C-2.455 7.785 -2.785 8.445 -3.125 9.125 C-3.125 7.805 -3.125 6.485 -3.125 5.125 C-1.475 5.125 0.175 5.125 1.875 5.125 C-0.435 4.135 -2.745 3.145 -5.125 2.125 C-3.125 0.125 -3.125 0.125 0 0 Z " fill="#3D2A2F" transform="translate(22.125,5.875)"/>
<path d="M0 0 C0.53367188 0.38671875 1.06734375 0.7734375 1.6171875 1.171875 C7.15693345 5.04394656 12.63693125 7.74170838 19 10 C19 10.66 19 11.32 19 12 C19.61875 12.12375 20.2375 12.2475 20.875 12.375 C23 13 23 13 25 15 C25 15.99 25 16.98 25 18 C22.83126588 16.99308773 20.99819836 15.99855869 19.125 14.5 C17.02062037 12.84901752 17.02062037 12.84901752 14.234375 12.15234375 C10.70205814 10.89384922 8.15139322 9.26463165 5.125 7.0625 C4.15820312 6.37285156 3.19140625 5.68320313 2.1953125 4.97265625 C1.47085938 4.32167969 0.74640625 3.67070313 0 3 C0 2.01 0 1.02 0 0 Z " fill="#6740AA" transform="translate(52,4)"/>
<path d="M0 0 C0 3 0 3 -3 9 C-8.61 8.67 -14.22 8.34 -20 8 C-20 7.01 -20 6.02 -20 5 C-19.2265625 4.97421875 -18.453125 4.9484375 -17.65625 4.921875 C-10.73183653 4.54480298 -5.96474358 3.55590483 0 0 Z " fill="#3D161F" transform="translate(73,35)"/>
<path d="M0 0 C0.66 0.33 1.32 0.66 2 1 C2.96847302 3.90541905 3.19582812 5.96637454 3.25 9 C3.28867188 10.299375 3.28867188 10.299375 3.328125 11.625 C3 14 3 14 1.62109375 15.36328125 C-0.88155314 17.89005004 -1.28447038 20.7933542 -2.1875 24.1875 C-2.53167969 25.45980469 -2.87585938 26.73210938 -3.23046875 28.04296875 C-3.48441406 29.01878906 -3.73835938 29.99460937 -4 31 C-5.02859394 27.8128075 -4.93332487 25.73329948 -4.125 22.5 C-3.94195312 21.7471875 -3.75890625 20.994375 -3.5703125 20.21875 C-3.19237491 18.74841745 -2.77060426 17.28861546 -2.3046875 15.84375 C-2.20414062 15.2353125 -2.10359375 14.626875 -2 14 C-2.66 13.34 -3.32 12.68 -4 12 C-2.625 10 -2.625 10 -1 8 C-0.34 8 0.32 8 1 8 C0.67 5.36 0.34 2.72 0 0 Z " fill="#631063" transform="translate(77,22)"/>
<path d="M0 0 C0 0.99 0 1.98 0 3 C-1.87422152 3.48220263 -3.74941754 3.96061833 -5.625 4.4375 C-6.66914062 4.70433594 -7.71328125 4.97117187 -8.7890625 5.24609375 C-11.84891124 5.96452539 -14.8948051 6.51976716 -18 7 C-18.33 5.68 -18.66 4.36 -19 3 C-12.43345544 0.6969113 -6.96327638 -0.33693273 0 0 Z " fill="#B5198C" transform="translate(66,56)"/>
<path d="M0 0 C0.66 0 1.32 0 2 0 C1.34580901 5.06998019 -0.8546409 9.41990777 -3 14 C-6.2910841 10.39042389 -7.54663921 7.87362847 -8 3 C-6.865625 2.690625 -5.73125 2.38125 -4.5625 2.0625 C-1.21224901 1.37075469 -1.21224901 1.37075469 0 0 Z " fill="#2E1733" transform="translate(15,25)"/>
<path d="M0 0 C0.66 1.32 1.32 2.64 2 4 C1.01 4.495 1.01 4.495 0 5 C-1.03605563 8.28835048 -1.95698799 11.57795196 -2.79296875 14.921875 C-4.33224426 20.3948546 -6.34300726 22.73238631 -11 26 C-10.731875 25.360625 -10.46375 24.72125 -10.1875 24.0625 C-8.14964039 18.80696733 -6.30643255 13.4870167 -5 8 C-4.34 8 -3.68 8 -3 8 C-3.061875 7.05125 -3.12375 6.1025 -3.1875 5.125 C-3.125625 4.09375 -3.06375 3.0625 -3 2 C-2.01 1.34 -1.02 0.68 0 0 Z " fill="#52052D" transform="translate(81,36)"/>
<path d="M0 0 C1.93359375 0.6015625 1.93359375 0.6015625 4 2 C4.72265625 4.8984375 4.72265625 4.8984375 5.0625 8.375 C5.53048922 13.03385894 6.15578459 15.34200057 9 19 C8.67 19.99 8.34 20.98 8 22 C1.93565785 15.09919686 0.52067729 8.92333157 0 0 Z " fill="#6D308E" transform="translate(26,22)"/>
<path d="M0 0 C2.475 0.495 2.475 0.495 5 1 C5.50181191 2.47855295 6.00140076 3.95786058 6.5 5.4375 C6.7784375 6.26121094 7.056875 7.08492187 7.34375 7.93359375 C8 10 8 10 8 11 C6.02 11 4.04 11 2 11 C-0.32590854 7.36576791 -0.16265833 4.22911669 0 0 Z " fill="#FCD4EB" transform="translate(38,29)"/>
<path d="M0 0 C4.441725 1.39597071 7.01540848 3.43507124 10 7 C10.8125 9.8125 10.8125 9.8125 11 12 C8.69 11.67 6.38 11.34 4 11 C4 10.01 4 9.02 4 8 C3.34 8 2.68 8 2 8 C1.34 5.36 0.68 2.72 0 0 Z " fill="#492E2A" transform="translate(34,15)"/>
<path d="M0 0 C1.32 0 2.64 0 4 0 C4 0.66 4 1.32 4 2 C3.34 2 2.68 2 2 2 C0.95023036 5.14930893 0.89868405 7.38814456 0.9375 10.6875 C0.94652344 11.68136719 0.95554687 12.67523438 0.96484375 13.69921875 C0.97644531 14.45847656 0.98804688 15.21773437 1 16 C1.66 16 2.32 16 3 16 C4.06775224 17.96466413 5.06553465 19.96855359 6 22 C5.67 22.66 5.34 23.32 5 24 C-3.07053847 15.19346903 -3.07053847 15.19346903 -2.95703125 10.0546875 C-2.59389858 6.34114211 -2.00911054 3.21457686 0 0 Z " fill="#5305AF" transform="translate(22,24)"/>
<path d="M0 0 C2.78702389 1.39351194 3.1857454 3.14470897 4.5 5.9375 C6.30611242 9.7751351 6.30611242 9.7751351 9 13 C9 13.99 9 14.98 9 16 C5.625 15.4375 5.625 15.4375 2 14 C-0.0985599 9.34667153 -0.20623825 5.05283723 0 0 Z " fill="#A23BE5" transform="translate(26,31)"/>
<path d="M0 0 C1.98 0 3.96 0 6 0 C5.54835868 4.85514421 4.51949566 7.57562584 1 11 C-2.25 12.3125 -2.25 12.3125 -5 13 C-5 12.01 -5 11.02 -5 10 C-4.030625 9.5875 -3.06125 9.175 -2.0625 8.75 C1.12260099 7.35100832 1.12260099 7.35100832 1.875 4.8125 C1.91625 4.214375 1.9575 3.61625 2 3 C1.01 3 0.02 3 -1 3 C-0.67 2.01 -0.34 1.02 0 0 Z " fill="#908580" transform="translate(71,26)"/>
<path d="M0 0 C3 1 3 1 4.1875 3 C5.26888746 6.99281524 5.52365878 10.88773841 5 15 C4.01 16.485 4.01 16.485 3 18 C2.49490792 15.75113762 1.99610821 13.50086131 1.5 11.25 C1.2215625 9.99703125 0.943125 8.7440625 0.65625 7.453125 C0 4 0 4 0 0 Z " fill="#EADDD6" transform="translate(31,14)"/>
<path d="M0 0 C-0.33 0.66 -0.66 1.32 -1 2 C-3.47681272 2.45221044 -5.87757604 2.79558201 -8.375 3.0625 C-15.44088736 3.86604546 -18.96619165 4.6940939 -24 10 C-23.1689292 6.36406523 -21.66971955 4.37105095 -18.75 2.1875 C-12.97097307 -1.23710855 -6.48389577 -0.40979678 0 0 Z " fill="#390655" transform="translate(36,0)"/>
<path d="M0 0 C1.2065625 0.0309375 1.2065625 0.0309375 2.4375 0.0625 C-1.07461208 4.09408847 -5.45463165 5.03089686 -10.5625 6.0625 C-13.91620297 6.28092299 -17.2085467 6.25517391 -20.5625 6.0625 C-20.5625 5.4025 -20.5625 4.7425 -20.5625 4.0625 C-19.34691406 3.85753906 -18.13132812 3.65257812 -16.87890625 3.44140625 C-15.29423486 3.16948039 -13.70960137 2.89733357 -12.125 2.625 C-11.32255859 2.49029297 -10.52011719 2.35558594 -9.69335938 2.21679688 C-6.2743137 1.6253164 -3.22752287 0.07872007 0 0 Z " fill="#6B1A84" transform="translate(42.5625,-0.0625)"/>
<path d="M0 0 C2.0625 0.4375 2.0625 0.4375 4 1 C0.34827367 3.26849666 -3.0127118 3.3895951 -7.25 3.625 C-8.51328125 3.69976562 -9.7765625 3.77453125 -11.078125 3.8515625 C-12.04234375 3.90054687 -13.0065625 3.94953125 -14 4 C-14 4.66 -14 5.32 -14 6 C-14.78375 6.268125 -15.5675 6.53625 -16.375 6.8125 C-19.28114923 7.84814432 -19.28114923 7.84814432 -21 11 C-21.99 11.495 -21.99 11.495 -23 12 C-22.39064781 8.58762774 -21.55119876 6.39174884 -19 4 C-13.79302698 2.17431859 -8.21815894 1.71126699 -2.75 1.24609375 C-0.97486301 1.17544605 -0.97486301 1.17544605 0 0 Z " fill="#4D0F72" transform="translate(36,0)"/>
<path d="M0 0 C3.3 0 6.6 0 10 0 C10 1.65 10 3.3 10 5 C8.35 5.33 6.7 5.66 5 6 C4.67 6.99 4.34 7.98 4 9 C2.02 9.33 0.04 9.66 -2 10 C2 6 2 6 3.6875 4.375 C5.11564313 3.01378527 5.11564313 3.01378527 6 1 C4.02 1 2.04 1 0 1 C0 0.67 0 0.34 0 0 Z " fill="#910827" transform="translate(55,44)"/>
<path d="M0 0 C0.66 0 1.32 0 2 0 C2 0.66 2 1.32 2 2 C7.445 1.01 7.445 1.01 13 0 C13 0.99 13 1.98 13 3 C8.44573816 5.66590937 5.26053037 6.31563182 0 6 C0 4.02 0 2.04 0 0 Z " fill="#C11957" transform="translate(44,46)"/>
<path d="M0 0 C0.33 1.32 0.66 2.64 1 4 C1.75796875 3.92007812 2.5159375 3.84015625 3.296875 3.7578125 C6 4 6 4 7.765625 5.6796875 C8.25546875 6.40414063 8.7453125 7.12859375 9.25 7.875 C9.75015625 8.59429687 10.2503125 9.31359375 10.765625 10.0546875 C13.41932457 14.23678365 13.07916163 17.09197887 13 22 C12.67 22 12.34 22 12 22 C11.81824219 21.33613281 11.63648438 20.67226563 11.44921875 19.98828125 C10.10476709 15.26546387 8.85015263 11.07164661 6 7 C4.02 7.33 2.04 7.66 0 8 C0 5.36 0 2.72 0 0 Z " fill="#A25967" transform="translate(36,23)"/>
<path d="M0 0 C6.15234375 1.3671875 6.15234375 1.3671875 8 2 C8.33 2.66 8.66 3.32 9 4 C6.03 3.505 6.03 3.505 3 3 C3.165 3.515625 3.33 4.03125 3.5 4.5625 C4.15049 7.73363876 4.0620734 10.77218334 4 14 C3.01 14.33 2.02 14.66 1 15 C0.67 10.05 0.34 5.1 0 0 Z " fill="#341A33" transform="translate(16,8)"/>
<path d="M0 0 C1.18851563 0.00902344 2.37703125 0.01804687 3.6015625 0.02734375 C4.51679687 0.03894531 5.43203125 0.05054688 6.375 0.0625 C6.705 0.7225 7.035 1.3825 7.375 2.0625 C4.735 2.3925 2.095 2.7225 -0.625 3.0625 C-0.625 4.0525 -0.625 5.0425 -0.625 6.0625 C-4.00003669 4.8766763 -6.27222731 3.78676311 -8.625 1.0625 C-5.74084117 -0.37957941 -3.20778472 -0.03144887 0 0 Z " fill="#1E0EAE" transform="translate(40.625,6.9375)"/>
<path d="M0 0 C3.30828754 0.55725952 4.72389414 1.34318463 6.6875 4.0625 C9.34783236 7.99587483 9.7530724 11.30837553 10 16 C9.34 16 8.68 16 8 16 C7.67386719 15.18015625 7.34773438 14.3603125 7.01171875 13.515625 C6.35623047 11.89914063 6.35623047 11.89914063 5.6875 10.25 C5.25824219 9.18265625 4.82898437 8.1153125 4.38671875 7.015625 C3.15391388 4.3347085 1.87192513 2.2616808 0 0 Z " fill="#271ECF" transform="translate(58,15)"/>
<path d="M0 0 C0 3 0 3 -0.5 5.125 C-0.95139054 7.72049562 -1.0027114 9.88284912 -0.9375 12.5 C-0.88315397 16.11703014 -1.31217678 18.72984251 -3 22 C-4.17946184 18.31418175 -4 14.84329799 -4 11 C-4.268125 9.96875 -4.53625 8.9375 -4.8125 7.875 C-5 5 -5 5 -2.5625 2.125 C-1.716875 1.42375 -0.87125 0.7225 0 0 Z " fill="#260E61" transform="translate(84,11)"/>
<path d="M0 0 C0.99 0.33 1.98 0.66 3 1 C3 3.64 3 6.28 3 9 C2.67 8.34 2.34 7.68 2 7 C1.34 7 0.68 7 0 7 C0 7.66 0 8.32 0 9 C-0.66 9 -1.32 9 -2 9 C-2.66 10.32 -3.32 11.64 -4 13 C-4.33 12.34 -4.66 11.68 -5 11 C-4.67 10.01 -4.34 9.02 -4 8 C-3.34 8 -2.68 8 -2 8 C-1.7834375 6.576875 -1.7834375 6.576875 -1.5625 5.125 C-1 2 -1 2 0 0 Z " fill="#630F7E" transform="translate(14,10)"/>
<path d="M0 0 C2.31 0.33 4.62 0.66 7 1 C7.33 1.99 7.66 2.98 8 4 C8.7425 4 9.485 4 10.25 4 C14.0715256 5.38964567 14.71069067 7.54042198 16.3984375 11.08984375 C17 13 17 13 16 15 C15.401875 14.030625 14.80375 13.06125 14.1875 12.0625 C12.28872491 8.76947958 12.28872491 8.76947958 9 8 C9 7.34 9 6.68 9 6 C8.443125 5.731875 7.88625 5.46375 7.3125 5.1875 C4.79739624 3.89596023 2.3827482 2.52231135 0 1 C0 0.67 0 0.34 0 0 Z " fill="#4429AA" transform="translate(62,8)"/>
<path d="M0 0 C-4.19412131 3.44517108 -7.38451164 4.14140424 -12.75 4.0625 C-13.54921875 4.05347656 -14.3484375 4.04445313 -15.171875 4.03515625 C-15.77515625 4.02355469 -16.3784375 4.01195313 -17 4 C-11.96693579 0.64462386 -6.01044319 -2.1327379 0 0 Z " fill="#90075D" transform="translate(65,60)"/>
<path d="M0 0 C1.32 0.66 2.64 1.32 4 2 C3.67 2.66 3.34 3.32 3 4 C2.58326793 7.45800359 2.58326793 7.45800359 3 11 C4.86124923 12.98239527 4.86124923 12.98239527 7 14 C6.67 14.66 6.34 15.32 6 16 C0.97927461 13.44559585 0.97927461 13.44559585 -1 11 C-1.33063603 7.20301851 -0.77477334 3.71760991 0 0 Z " fill="#4F0F2A" transform="translate(40,46)"/>
<path d="M0 0 C2.0625 0.4375 2.0625 0.4375 4 1 C2.68 1.33 1.36 1.66 0 2 C-1.15147536 5.94791553 -1.59841673 9.91723674 -2 14 C-1.67 14.33 -1.34 14.66 -1 15 C-0.95907063 17.33297433 -0.95758277 19.66705225 -1 22 C-4.09803639 18.90196361 -3.96440477 16.54282728 -4.25 12.1875 C-4.20965151 7.8782812 -3.16092267 3.16092267 0 0 Z " fill="#3E057B" transform="translate(22,22)"/>
<path d="M0 0 C1.45212891 -0.03867188 1.45212891 -0.03867188 2.93359375 -0.078125 C5.5625 0.25 5.5625 0.25 8.5625 3.25 C3.9425 3.25 -0.6775 3.25 -5.4375 3.25 C-5.1075 4.24 -4.7775 5.23 -4.4375 6.25 C-5.7575 5.59 -7.0775 4.93 -8.4375 4.25 C-8.1075 3.26 -7.7775 2.27 -7.4375 1.25 C-4.85741408 -0.04004296 -2.88008426 0.04589776 0 0 Z " fill="#2517D3" transform="translate(47.4375,8.75)"/>
<path d="M0 0 C1 2 1 2 0 6 C-4.29 6 -8.58 6 -13 6 C-10.09867381 4.5493369 -7.21417995 3.18272645 -4.25 1.875 C-3.05117187 1.34519531 -3.05117187 1.34519531 -1.828125 0.8046875 C-1.22484375 0.53914063 -0.6215625 0.27359375 0 0 Z " fill="#650532" transform="translate(70,58)"/>
<path d="M0 0 C0.66 0 1.32 0 2 0 C2.50610724 6.07328688 1.04157942 9.77228537 -2 15 C-2.66 14.67 -3.32 14.34 -4 14 C-3.00956295 9.16371695 -2.04301154 4.52381127 0 0 Z " fill="#1F0531" transform="translate(86,24)"/>
<path d="M0 0 C-3.61186839 2.74501997 -7.30395263 5.37012014 -11 8 C-11.66 7.67 -12.32 7.34 -13 7 C-9.54291058 0.74431438 -7.10821544 -0.26823454 0 0 Z " fill="#250038" transform="translate(22,0)"/>
<path d="M0 0 C0.66 0 1.32 0 2 0 C2.66 0.99 3.32 1.98 4 3 C5.97747122 3.36297936 5.97747122 3.36297936 8.125 3.1875 C9.40375 3.125625 10.6825 3.06375 12 3 C12.33 3.66 12.66 4.32 13 5 C12.04287109 5.07347656 12.04287109 5.07347656 11.06640625 5.1484375 C10.24011719 5.22320312 9.41382813 5.29796875 8.5625 5.375 C7.73878906 5.44460937 6.91507813 5.51421875 6.06640625 5.5859375 C5.38449219 5.72257812 4.70257812 5.85921875 4 6 C3.67 6.66 3.34 7.32 3 8 C0.9375 6.25 0.9375 6.25 -1 4 C-0.75 1.75 -0.75 1.75 0 0 Z " fill="#2C0F27" transform="translate(27,53)"/>
<path d="M0 0 C6.4 0.49230769 6.4 0.49230769 9.4375 3.0625 C10.2109375 4.0215625 10.2109375 4.0215625 11 5 C10.34 5 9.68 5 9 5 C8.67 5.99 8.34 6.98 8 8 C6.66372225 6.85760183 5.33104612 5.71098945 4 4.5625 C3.2575 3.92441406 2.515 3.28632813 1.75 2.62890625 C1.1725 2.09136719 0.595 1.55382812 0 1 C0 0.67 0 0.34 0 0 Z " fill="#C1B1C1" transform="translate(34,13)"/>
<path d="M0 0 C0.33 1.32 0.66 2.64 1 4 C4.3 4 7.6 4 11 4 C10.67 4.66 10.34 5.32 10 6 C2.82105263 7.27368421 2.82105263 7.27368421 -1 6 C-0.67 4.02 -0.34 2.04 0 0 Z " fill="#9D0F41" transform="translate(43,48)"/>
<path d="M0 0 C4.29 0 8.58 0 13 0 C13 0.33 13 0.66 13 1 C9.04 1 5.08 1 1 1 C1 1.99 1 2.98 1 4 C2.32 4.33 3.64 4.66 5 5 C1.535 6.485 1.535 6.485 -2 8 C-1.125 2.25 -1.125 2.25 0 0 Z " fill="#6A2D35" transform="translate(52,39)"/>
<path d="M0 0 C0.680625 0.45375 1.36125 0.9075 2.0625 1.375 C5.30435186 3.16836486 8.4203441 4.08753869 12 5 C12 5.33 12 5.66 12 6 C6.158256 6.35050464 2.1468192 6.16727335 -3 3 C-2.67 2.34 -2.34 1.68 -2 1 C-1.34 1.33 -0.68 1.66 0 2 C0 1.34 0 0.68 0 0 Z " fill="#761689" transform="translate(26,58)"/>
<path d="M0 0 C0.99 0 1.98 0 3 0 C3 1.32 3 2.64 3 4 C2.01 4 1.02 4 0 4 C0 7.3 0 10.6 0 14 C-2 12 -2 12 -2.265625 9.94140625 C-2.26046875 9.15636719 -2.2553125 8.37132812 -2.25 7.5625 C-2.25515625 6.78003906 -2.2603125 5.99757813 -2.265625 5.19140625 C-2 3 -2 3 0 0 Z " fill="#6A0EC2" transform="translate(24,26)"/>
<path d="M0 0 C1.9375 0.375 1.9375 0.375 4 1 C5.39431504 3.78863007 5.25660094 5.92078868 5 9 C1.77208445 11.1519437 0.71599191 11.20086443 -3 11 C-3 10.34 -3 9.68 -3 9 C-1.02 8.67 0.96 8.34 3 8 C3 6.02 3 4.04 3 2 C2.01 1.67 1.02 1.34 0 1 C0 0.67 0 0.34 0 0 Z " fill="#4D1A5D" transform="translate(35,44)"/>
<path d="M0 0 C0.66 0 1.32 0 2 0 C3.32421875 1.609375 3.32421875 1.609375 4.6875 3.75 C5.14511719 4.44609375 5.60273437 5.1421875 6.07421875 5.859375 C7.16906025 8.39090725 6.9435441 9.46100862 6 12 C4.98829382 10.75945552 3.99102203 9.5071298 3 8.25 C2.443125 7.55390625 1.88625 6.8578125 1.3125 6.140625 C0 4 0 4 0 0 Z " fill="#DCCACE" transform="translate(43,18)"/>
<path d="M0 0 C0.99 0.33 1.98 0.66 3 1 C2.979375 2.03125 2.95875 3.0625 2.9375 4.125 C2.99276661 7.55152969 3.34550715 10.64572414 4 14 C3.01 13.67 2.02 13.34 1 13 C-0.00496852 9.98509443 -0.10335303 7.95818308 -0.0625 4.8125 C-0.05347656 3.91144531 -0.04445313 3.01039062 -0.03515625 2.08203125 C-0.02355469 1.39496094 -0.01195313 0.70789063 0 0 Z " fill="#8C23DC" transform="translate(24,30)"/>
<path d="M0 0 C6 4 6 4 12 8 C11.67 8.99 11.34 9.98 11 11 C9.15830774 9.74131097 7.32682969 8.46766474 5.5 7.1875 C4.4790625 6.47980469 3.458125 5.77210937 2.40625 5.04296875 C1.6121875 4.36878906 0.818125 3.69460937 0 3 C0 2.01 0 1.02 0 0 Z " fill="#907BDF" transform="translate(52,4)"/>
<path d="M0 0 C2.64 0 5.28 0 8 0 C8 0.99 8 1.98 8 3 C1.07 4.485 1.07 4.485 -6 6 C-4.60804085 3.2160817 -2.84424221 3.02101003 0 2 C0 1.34 0 0.68 0 0 Z " fill="#A41174" transform="translate(58,56)"/>
<path d="M0 0 C2.31 0 4.62 0 7 0 C7.6875 2.8125 7.6875 2.8125 8 6 C6.5625 7.875 6.5625 7.875 5 9 C4.01 8.67 3.02 8.34 2 8 C2.66 7.34 3.32 6.68 4 6 C4.33 5.01 4.66 4.02 5 3 C2.525 2.01 2.525 2.01 0 1 C0 0.67 0 0.34 0 0 Z " fill="#783651" transform="translate(62,51)"/>
<path d="M0 0 C1.64767247 0.28109113 3.29313145 0.57518526 4.9375 0.875 C5.85402344 1.03742187 6.77054688 1.19984375 7.71484375 1.3671875 C8.46894531 1.57601562 9.22304688 1.78484375 10 2 C10.33 2.66 10.66 3.32 11 4 C7.7 4 4.4 4 1 4 C0.67 2.68 0.34 1.36 0 0 Z " fill="#56047D" transform="translate(18,60)"/>
<path d="M0 0 C1.32 0 2.64 0 4 0 C4 0.66 4 1.32 4 2 C3.34 2 2.68 2 2 2 C1.67 2.99 1.34 3.98 1 5 C0.34 5 -0.32 5 -1 5 C-1 7.64 -1 10.28 -1 13 C-1.66 12.67 -2.32 12.34 -3 12 C-2.14285714 3.42857143 -2.14285714 3.42857143 0 0 Z " fill="#4A049C" transform="translate(22,24)"/>
<path d="M0 0 C3.74622356 1.45015106 3.74622356 1.45015106 4.75 3.625 C5.1155134 7.09737727 5.05818928 10.50864298 5 14 C3 12 3 12 2.5 8.4375 C2.335 7.303125 2.17 6.16875 2 5 C1.34 4.67 0.68 4.34 0 4 C0 2.68 0 1.36 0 0 Z " fill="#613272" transform="translate(26,22)"/>
<path d="M0 0 C0.66 1.32 1.32 2.64 2 4 C1.01 4.495 1.01 4.495 0 5 C-1.05352843 7.30965848 -2.05719096 9.6429774 -3 12 C-4.23912545 8.42030426 -3.95063395 5.64409679 -3 2 C-2.01 1.34 -1.02 0.68 0 0 Z " fill="#3C0532" transform="translate(81,36)"/>
<path d="M0 0 C0.66 0 1.32 0 2 0 C1.38461538 6.52307692 1.38461538 6.52307692 -0.5625 8.9375 C-1.036875 9.288125 -1.51125 9.63875 -2 10 C-2.99 9.67 -3.98 9.34 -5 9 C-4.0409375 7.88625 -4.0409375 7.88625 -3.0625 6.75 C-1.21666593 4.2888879 -0.43930826 2.96533074 0 0 Z " fill="#8818A1" transform="translate(14,17)"/>
<path d="M0 0 C0.66 0 1.32 0 2 0 C2.33 0.99 2.66 1.98 3 3 C4.49985609 4.66710346 4.49985609 4.66710346 6 6 C3.39417629 6.93065133 2.35801776 7.14917407 -0.25 6.0625 C-0.8275 5.711875 -1.405 5.36125 -2 5 C-1.125 1.125 -1.125 1.125 0 0 Z " fill="#4D2B5B" transform="translate(23,16)"/>
<path d="M0 0 C0.94875 0.04125 1.8975 0.0825 2.875 0.125 C3.205 2.105 3.535 4.085 3.875 6.125 C-0.58 4.145 -0.58 4.145 -5.125 2.125 C-3.125 0.125 -3.125 0.125 0 0 Z " fill="#6A504F" transform="translate(22.125,5.875)"/>
<path d="M0 0 C1.38157895 4.14473684 1.38157895 4.14473684 0 7 C-4.0124261 8.91502155 -6.74351821 9.25190641 -11 8 C-11 7.67 -11 7.34 -11 7 C-9.1128125 6.6596875 -9.1128125 6.6596875 -7.1875 6.3125 C-3.82648432 5.49752806 -3.19641677 5.257797 -1 2.375 C-0.67 1.59125 -0.34 0.8075 0 0 Z " fill="#A59FC6" transform="translate(69,27)"/>
<path d="M0 0 C0.66 0 1.32 0 2 0 C3.76462683 3.08809695 4 4.23312136 4 8 C3.01 8.33 2.02 8.66 1 9 C-1.09230769 4.56923077 -1.09230769 4.56923077 -0.625 1.6875 C-0.41875 1.130625 -0.2125 0.57375 0 0 Z " fill="#BFB2BA" transform="translate(50,26)"/>
<path d="M0 0 C2.04943169 2.04943169 3.21078802 3.91921024 4.625 6.4375 C5.07101563 7.21996094 5.51703125 8.00242187 5.9765625 8.80859375 C7 11 7 11 7 14 C0.1125 7.475 0.1125 7.475 -0.125 2.25 C-0.063125 1.13625 -0.063125 1.13625 0 0 Z " fill="#6E0A9D" transform="translate(7,40)"/>
<path d="M0 0 C4.875 2.625 4.875 2.625 6 6 C4.35 6.66 2.7 7.32 1 8 C0.67 5.36 0.34 2.72 0 0 Z " fill="#6363E1" transform="translate(61,26)"/>
<path d="M0 0 C0.66 0.33 1.32 0.66 2 1 C2.29915966 9.97478992 2.29915966 9.97478992 0 13 C-0.99 13.33 -1.98 13.66 -3 14 C-3 11 -3 11 -1 8 C-0.34 8 0.32 8 1 8 C0.67 5.36 0.34 2.72 0 0 Z " fill="#5D296C" transform="translate(77,22)"/>
<path d="M0 0 C0.33 0 0.66 0 1 0 C1.33 4.29 1.66 8.58 2 13 C0.02 13.99 0.02 13.99 -2 15 C-1.855625 14.38125 -1.71125 13.7625 -1.5625 13.125 C-0.77943337 8.77462983 -0.40153341 4.39978093 0 0 Z " fill="#892868" transform="translate(70,41)"/>
<path d="M0 0 C0.66 0.33 1.32 0.66 2 1 C1.75 4.375 1.75 4.375 1 8 C-0.98 8.99 -0.98 8.99 -3 10 C-2.01 6.7 -1.02 3.4 0 0 Z " fill="#310843" transform="translate(82,28)"/>
<path d="M0 0 C0.33 0.99 0.66 1.98 1 3 C2.98 3 4.96 3 7 3 C7.33 2.01 7.66 1.02 8 0 C8.66 2.64 9.32 5.28 10 8 C9.46375 7.71125 8.9275 7.4225 8.375 7.125 C5.64719516 5.83288192 2.87387282 4.91441408 0 4 C0 2.68 0 1.36 0 0 Z " fill="#683239" transform="translate(37,23)"/>
<path d="M0 0 C0 1.32 0 2.64 0 4 C-2.64 4 -5.28 4 -8 4 C-4.5 0 -4.5 0 0 0 Z " fill="#36283E" transform="translate(51,2)"/>
<path d="M0 0 C0.33 0 0.66 0 1 0 C1.33 2.64 1.66 5.28 2 8 C1.01 8 0.02 8 -1 8 C-1 7.34 -1 6.68 -1 6 C-2.32 5.34 -3.64 4.68 -5 4 C-4.0409375 3.8453125 -4.0409375 3.8453125 -3.0625 3.6875 C-2.381875 3.460625 -1.70125 3.23375 -1 3 C-0.67 2.01 -0.34 1.02 0 0 Z " fill="#E4689F" transform="translate(47,40)"/>
<path d="M0 0 C2 1.1875 2 1.1875 4 3 C4.25 5.6875 4.25 5.6875 4 8 C2.35 7.67 0.7 7.34 -1 7 C-0.67 4.69 -0.34 2.38 0 0 Z " fill="#868AED" transform="translate(58,26)"/>
<path d="M0 0 C2.46313739 1.82748903 3.83428618 3.22976216 4.48828125 6.26953125 C4.72518293 8.51479346 4.90361349 10.74455578 5 13 C2.05633121 8.58449682 0 5.38909875 0 0 Z " fill="#261C8E" transform="translate(64,16)"/>
<path d="M0 0 C2.02045442 0.60183749 4.02111039 1.27306096 6 2 C6.33 2.66 6.66 3.32 7 4 C4.36 4.33 1.72 4.66 -1 5 C-0.67 3.35 -0.34 1.7 0 0 Z " fill="#726570" transform="translate(70,22)"/>
<path d="M0 0 C6.625 -0.125 6.625 -0.125 10 1 C10 1.66 10 2.32 10 3 C7.36 3 4.72 3 2 3 C2 2.34 2 1.68 2 1 C1.34 0.67 0.68 0.34 0 0 Z " fill="#15080D" transform="translate(29,58)"/>
<path d="M0 0 C2.475 0.495 2.475 0.495 5 1 C5 1.66 5 2.32 5 3 C4.01 3 3.02 3 2 3 C2.33 4.32 2.66 5.64 3 7 C2.01 7 1.02 7 0 7 C0 4.69 0 2.38 0 0 Z " fill="#F9BED6" transform="translate(38,29)"/>
<path d="M0 0 C2.26274788 0.35355436 3.95088852 0.97544426 6 2 C6 2.66 6 3.32 6 4 C3.125 4.125 3.125 4.125 0 4 C-0.66 3.34 -1.32 2.68 -2 2 C-1.34 1.34 -0.68 0.68 0 0 Z " fill="#3B0F1C" transform="translate(61,52)"/>
<path d="M0 0 C3.91841827 1.30613942 6.32640809 2.83129848 9 6 C9 6.66 9 7.32 9 8 C4.7257442 6.4169423 2.73468206 3.49431596 0 0 Z " fill="#9C5460" transform="translate(35,39)"/>
<path d="M0 0 C0.99 0 1.98 0 3 0 C2.67 1.65 2.34 3.3 2 5 C-0.31 5.33 -2.62 5.66 -5 6 C-4.360625 5.566875 -3.72125 5.13375 -3.0625 4.6875 C-0.73253997 3.08760823 -0.73253997 3.08760823 0 0 Z " fill="#ACA6A6" transform="translate(70,29)"/>
<path d="M0 0 C0.99 0.33 1.98 0.66 3 1 C3.6875 3.0625 3.6875 3.0625 4 5 C3.67 5 3.34 5 3 5 C2.67 6.98 2.34 8.96 2 11 C1.67 11 1.34 11 1 11 C0.4254048 7.26513121 0 3.78706732 0 0 Z " fill="#BFB5AA" transform="translate(31,14)"/>
<path d="M0 0 C1.7074998 1.28062485 3.37373596 2.61767557 5 4 C5 4.66 5 5.32 5 6 C-0.75 4.25 -0.75 4.25 -3 2 C-2.01 2 -1.02 2 0 2 C0 1.34 0 0.68 0 0 Z " fill="#81189F" transform="translate(21,54)"/>
<path d="M0 0 C0.99 0 1.98 0 3 0 C3 2.31 3 4.62 3 7 C1.68 7 0.36 7 -1 7 C-0.67 4.69 -0.34 2.38 0 0 Z " fill="#4F232D" transform="translate(67,44)"/>
<path d="M0 0 C2.125 0.9375 2.125 0.9375 4 2 C4.33 1.34 4.66 0.68 5 0 C5.33 1.32 5.66 2.64 6 4 C3.125 4.1875 3.125 4.1875 0 4 C-0.66 3.01 -1.32 2.02 -2 1 C-1.34 0.67 -0.68 0.34 0 0 Z " fill="#7C14CD" transform="translate(31,45)"/>
<path d="M0 0 C0.66 0 1.32 0 2 0 C2.66 2.97 3.32 5.94 4 9 C3.01 9 2.02 9 1 9 C0.67 6.03 0.34 3.06 0 0 Z " fill="#771A95" transform="translate(6,31)"/>
<path d="M0 0 C4.55384615 -0.36923077 4.55384615 -0.36923077 6.8125 1.5 C7.204375 1.995 7.59625 2.49 8 3 C7.67 3.99 7.34 4.98 7 6 C5.83054208 5.19152271 4.66449539 4.37810888 3.5 3.5625 C2.8503125 3.11003906 2.200625 2.65757813 1.53125 2.19140625 C1.0259375 1.79824219 0.520625 1.40507812 0 1 C0 0.67 0 0.34 0 0 Z " fill="#1E12B7" transform="translate(56,12)"/>
<path d="M0 0 C1.65 0 3.3 0 5 0 C5.33 0.99 5.66 1.98 6 3 C4.68 3.99 3.36 4.98 2 6 C1.34 4.02 0.68 2.04 0 0 Z " fill="#887A60" transform="translate(25,7)"/>
<path d="M0 0 C1.98 0.99 1.98 0.99 4 2 C4 2.66 4 3.32 4 4 C6.64 3.67 9.28 3.34 12 3 C12 3.66 12 4.32 12 5 C8.7 5 5.4 5 2 5 C1.34 3.35 0.68 1.7 0 0 Z " fill="#4B0692" transform="translate(26,47)"/>
<path d="M0 0 C3.32302186 1.56377499 5.56184007 3.21353151 8 6 C8 6.66 8 7.32 8 8 C7.01 8 6.02 8 5 8 C3.61328125 6.25 3.61328125 6.25 2.3125 4 C1.87550781 3.2575 1.43851563 2.515 0.98828125 1.75 C0.66214844 1.1725 0.33601562 0.595 0 0 Z " fill="#8E1EB0" transform="translate(13,48)"/>
<path d="M0 0 C0.33 0 0.66 0 1 0 C1.3125 2.8125 1.3125 2.8125 1 6 C-1.5 7.875 -1.5 7.875 -4 9 C-2.25 2.25 -2.25 2.25 0 0 Z " fill="#341541" transform="translate(16,29)"/>
<path d="M0 0 C2.27521866 2.16687491 4.15794162 4.45620509 6 7 C5.67 7.66 5.34 8.32 5 9 C3.0625 7.875 3.0625 7.875 1 6 C0.25 2.8125 0.25 2.8125 0 0 Z " fill="#CB79F8" transform="translate(28,36)"/>
<path d="M0 0 C2.625 0.9375 2.625 0.9375 5 2 C3 4 3 4 0.375 4.125 C-0.40875 4.08375 -1.1925 4.0425 -2 4 C-2 3.01 -2 2.02 -2 1 C-1.34 0.67 -0.68 0.34 0 0 Z " fill="#E2DAD9" transform="translate(54,33)"/>
<path d="M0 0 C0.66 0.33 1.32 0.66 2 1 C2.625 3.5625 2.625 3.5625 3 6 C0.69 5.67 -1.62 5.34 -4 5 C-3.34 4.67 -2.68 4.34 -2 4 C-2 3.34 -2 2.68 -2 2 C-1.34 2 -0.68 2 0 2 C0 1.34 0 0.68 0 0 Z " fill="#582530" transform="translate(42,21)"/>
<path d="M0 0 C0.66 0 1.32 0 2 0 C2.69710731 1.28650706 3.38242876 2.57940665 4.0625 3.875 C4.63677734 4.95394531 4.63677734 4.95394531 5.22265625 6.0546875 C5.47917969 6.69664063 5.73570313 7.33859375 6 8 C5.67 8.66 5.34 9.32 5 10 C0.57142857 3.71428571 0.57142857 3.71428571 0 0 Z " fill="#441F90" transform="translate(73,13)"/>
<path d="M0 0 C0.99 0.33 1.98 0.66 3 1 C2.54625 1.433125 2.0925 1.86625 1.625 2.3125 C-0.20024334 4.10798342 -0.20024334 4.10798342 -2 7 C-2.99 7.495 -2.99 7.495 -4 8 C-3.40072174 4.64404172 -2.15377564 2.62198774 0 0 Z " fill="#500B61" transform="translate(17,4)"/>
<path d="M0 0 C-1.97420135 2.52259061 -2.96745642 2.9929808 -6.1875 3.6875 C-7.5796875 3.8421875 -7.5796875 3.8421875 -9 4 C-9 3.34 -9 2.68 -9 2 C-5.86501708 0.14223235 -3.62528568 -0.20140476 0 0 Z " fill="#50209A" transform="translate(45,0)"/>
<path d="M0 0 C0.99 0.495 0.99 0.495 2 1 C2.4140625 3.06640625 2.4140625 3.06640625 2.625 5.5625 C2.69976563 6.38878906 2.77453125 7.21507812 2.8515625 8.06640625 C2.92503906 9.02353516 2.92503906 9.02353516 3 10 C1.51171875 8.73046875 1.51171875 8.73046875 0 7 C-0.1875 3.3125 -0.1875 3.3125 0 0 Z " fill="#B156EE" transform="translate(26,31)"/>
<path d="M0 0 C-2.17424117 2.50037734 -3.73045798 3.43628586 -7 4 C-7 3.01 -7 2.02 -7 1 C-4.53721199 -0.231394 -2.7204945 -0.07159196 0 0 Z " fill="#8D7E72" transform="translate(73,35)"/>
<path d="M0 0 C2.97 0.495 2.97 0.495 6 1 C6.33 2.32 6.66 3.64 7 5 C4.69 4.01 2.38 3.02 0 2 C0 1.34 0 0.68 0 0 Z " fill="#A8A7FA" transform="translate(50,20)"/>
<path d="M0 0 C1.31471568 0.28151087 2.62675767 0.57553339 3.9375 0.875 C4.66839844 1.03742187 5.39929688 1.19984375 6.15234375 1.3671875 C8 2 8 2 9 4 C6.03 3.67 3.06 3.34 0 3 C0 2.01 0 1.02 0 0 Z " fill="#2D1E1F" transform="translate(16,8)"/>
<path d="M0 0 C0.66 0.33 1.32 0.66 2 1 C2.625 3.5625 2.625 3.5625 3 6 C2.34 5.67 1.68 5.34 1 5 C1 5.99 1 6.98 1 8 C0.01 7.67 -0.98 7.34 -2 7 C-1.34 4.69 -0.68 2.38 0 0 Z " fill="#6E5B98" transform="translate(52,0)"/>
<path d="M0 0 C0.33 0.99 0.66 1.98 1 3 C-2 5 -2 5 -4.1875 4.625 C-4.785625 4.41875 -5.38375 4.2125 -6 4 C-4.02 2.68 -2.04 1.36 0 0 Z " fill="#8D0933" transform="translate(59,49)"/>
<path d="M0 0 C0.33 0 0.66 0 1 0 C1 1.98 1 3.96 1 6 C0.34 6 -0.32 6 -1 6 C-1.33 7.32 -1.66 8.64 -2 10 C-1.85950482 8.52031676 -1.71245174 7.04125484 -1.5625 5.5625 C-1.48128906 4.73878906 -1.40007812 3.91507813 -1.31640625 3.06640625 C-1 1 -1 1 0 0 Z " fill="#520848" transform="translate(77,38)"/>
<path d="M0 0 C1.98 0 3.96 0 6 0 C6 1.65 6 3.3 6 5 C3.98079663 3.69593116 1.98075027 2.36176581 0 1 C0 0.67 0 0.34 0 0 Z " fill="#4728AF" transform="translate(53,0)"/>
</svg>
